PathFileType	4	(X/Y/Z) abd_2kg_1.trc																										
DataRate	CameraRate	NumFrames	NumMarkers	Units	OrigDataRate	OrigDataStartFrame	OrigNumFrames																					
100	100	34	9	mm	100	726	829																					
Frame#	Time	gu			centelbow			EpL			centpxt8			centijc7			ij			ts			aa			ai		
		X1	Y1	Z1	X2	Y2	Z2	X3	Y3	Z3	X4	Y4	Z4	X5	Y5	Z5	X6	Y6	Z6	X7	Y7	Z7	X8	Y8	Z8	X9	Y9	Z9  
725	7.25	-102.453	1.214	159.003	-128.135	-242.159	192.082	-131.63	-233.542	222.953	-46.816	-153.158	-8.669	-46.816	31.938	-8.669	0	0	0	-126.475	28.62	34.989	-133.765	35.537	153.833	-136.92	-83.863	46.126
726	7.26	-102.602	1.227	159.013	-128.369	-242.138	192.089	-131.868	-233.52	222.958	-46.816	-153.158	-8.669	-46.816	31.938	-8.669	0	0	0	-126.855	28.475	34.91	-134.102	35.411	153.755	-137.331	-84.004	46.067
727	7.27	-102.776	1.159	158.971	-128.642	-242.192	192.071	-132.137	-233.57	222.939	-46.816	-153.158	-8.669	-46.816	31.938	-8.669	0	0	0	-127.203	28.395	34.789	-134.382	35.347	153.637	-137.71	-84.079	45.964
728	7.28	-102.821	1.055	158.87	-128.804	-242.281	191.988	-132.294	-233.655	222.856	-46.816	-153.158	-8.669	-46.816	31.938	-8.669	0	0	0	-127.234	28.491	34.601	-134.331	35.457	153.453	-137.763	-83.979	45.794
729	7.29	-102.752	0.971	158.759	-128.854	-242.354	191.871	-132.344	-233.726	222.739	-46.816	-153.158	-8.669	-46.816	31.938	-8.669	0	0	0	-127.105	28.716	34.279	-134.095	35.7	153.137	-137.651	-83.75	45.498
730	7.3	-102.624	0.959	158.644	-128.821	-242.356	191.745	-132.31	-233.729	222.612	-46.816	-153.158	-8.669	-46.816	31.938	-8.669	0	0	0	-127.12	28.904	33.887	-133.978	35.917	152.751	-137.694	-83.556	45.143
731	7.31	-102.443	1.007	158.522	-128.69	-242.303	191.621	-132.178	-233.675	222.489	-46.816	-153.158	-8.669	-46.816	31.938	-8.669	0	0	0	-127.283	28.925	33.565	-133.997	35.974	152.435	-137.897	-83.526	44.863
732	7.32	-102.24	1.056	158.391	-128.507	-242.252	191.493	-131.989	-233.623	222.362	-46.816	-153.158	-8.669	-46.816	31.938	-8.669	0	0	0	-127.415	28.844	33.29	-133.986	35.924	152.166	-138.063	-83.601	44.627
733	7.33	-102.15	1.069	158.252	-128.455	-242.235	191.356	-131.933	-233.606	222.224	-46.816	-153.158	-8.669	-46.816	31.938	-8.669	0	0	0	-127.484	28.822	32.97	-133.921	35.922	151.852	-138.141	-83.619	44.337
734	7.34	-102.249	1.035	158.12	-128.656	-242.256	191.234	-132.135	-233.624	222.102	-46.816	-153.158	-8.669	-46.816	31.938	-8.669	0	0	0	-127.565	28.855	32.658	-133.898	35.966	151.545	-138.224	-83.583	44.044
735	7.35	-102.388	0.988	158.038	-128.941	-242.285	191.172	-132.43	-233.646	222.037	-46.816	-153.158	-8.669	-46.816	31.938	-8.669	0	0	0	-127.643	28.807	32.473	-133.911	35.928	151.363	-138.33	-83.627	43.873
736	7.36	-102.375	0.944	158.023	-129.082	-242.308	191.184	-132.588	-233.662	222.045	-46.816	-153.158	-8.669	-46.816	31.938	-8.669	0	0	0	-127.674	28.695	32.44	-133.906	35.826	151.331	-138.405	-83.735	43.85
737	7.37	-102.238	0.883	158.033	-129.093	-242.348	191.229	-132.623	-233.693	222.085	-46.816	-153.158	-8.669	-46.816	31.938	-8.669	0	0	0	-127.724	28.653	32.493	-133.938	35.789	151.385	-138.481	-83.773	43.907
738	7.38	-102.149	0.814	157.995	-129.154	-242.394	191.233	-132.71	-233.729	222.083	-46.816	-153.158	-8.669	-46.816	31.938	-8.669	0	0	0	-127.842	28.665	32.552	-134.046	35.802	151.445	-138.607	-83.76	43.968
739	7.39	-102.15	0.752	157.884	-129.314	-242.434	191.155	-132.895	-233.759	221.999	-46.816	-153.158	-8.669	-46.816	31.938	-8.669	0	0	0	-127.909	28.597	32.602	-134.107	35.74	151.494	-138.69	-83.827	44.023
740	7.4	-102.129	0.742	157.761	-129.439	-242.425	191.045	-133.039	-233.745	221.885	-46.816	-153.158	-8.669	-46.816	31.938	-8.669	0	0	0	-127.801	28.459	32.661	-134	35.612	151.552	-138.613	-83.96	44.089
741	7.41	-102.064	0.854	157.686	-129.457	-242.305	190.965	-133.071	-233.622	221.803	-46.816	-153.158	-8.669	-46.816	31.938	-8.669	0	0	0	-127.641	28.425	32.691	-133.836	35.578	151.583	-138.469	-83.993	44.119
742	7.42	-102.036	1.015	157.64	-129.452	-242.145	190.898	-133.079	-233.463	221.734	-46.816	-153.158	-8.669	-46.816	31.938	-8.669	0	0	0	-127.669	28.537	32.661	-133.845	35.672	151.554	-138.476	-83.884	44.074
743	7.43	-102.077	1.058	157.621	-129.52	-242.104	190.839	-133.16	-233.426	221.675	-46.816	-153.158	-8.669	-46.816	31.938	-8.669	0	0	0	-127.918	28.625	32.632	-134.069	35.735	151.529	-138.694	-83.801	44.026
744	7.44	-102.151	0.961	157.657	-129.668	-242.201	190.817	-133.32	-233.527	221.653	-46.816	-153.158	-8.669	-46.816	31.938	-8.669	0	0	0	-128.163	28.564	32.666	-134.301	35.661	151.564	-138.946	-83.863	44.048
745	7.45	-102.193	0.828	157.699	-129.818	-242.329	190.802	-133.477	-233.66	221.638	-46.816	-153.158	-8.669	-46.816	31.938	-8.669	0	0	0	-128.218	28.409	32.685	-134.341	35.508	151.584	-139.045	-84.013	44.068
746	7.46	-102.157	0.743	157.687	-129.87	-242.409	190.757	-133.536	-233.741	221.593	-46.816	-153.158	-8.669	-46.816	31.938	-8.669	0	0	0	-128.117	28.289	32.582	-134.204	35.397	151.482	-138.988	-84.129	43.974
747	7.47	-102.1	0.747	157.645	-129.848	-242.4	190.717	-133.524	-233.731	221.551	-46.816	-153.158	-8.669	-46.816	31.938	-8.669	0	0	0	-127.972	28.294	32.418	-134.014	35.412	151.32	-138.849	-84.121	43.823
748	7.48	-102.132	0.809	157.61	-129.876	-242.335	190.705	-133.57	-233.662	221.536	-46.816	-153.158	-8.669	-46.816	31.938	-8.669	0	0	0	-127.837	28.432	32.389	-133.867	35.554	151.291	-138.685	-83.986	43.801
749	7.49	-102.228	0.823	157.565	-129.98	-242.317	190.691	-133.695	-233.637	221.518	-46.816	-153.158	-8.669	-46.816	31.938	-8.669	0	0	0	-127.726	28.619	32.569	-133.783	35.74	151.47	-138.538	-83.803	43.98
750	7.5	-102.268	0.755	157.467	-130.071	-242.374	190.633	-133.815	-233.685	221.454	-46.816	-153.158	-8.669	-46.816	31.938	-8.669	0	0	0	-127.639	28.755	32.813	-133.726	35.876	151.712	-138.426	-83.669	44.222
751	7.51	-102.264	0.67	157.286	-130.152	-242.441	190.505	-133.937	-233.74	221.317	-46.816	-153.158	-8.669	-46.816	31.938	-8.669	0	0	0	-127.581	28.811	32.969	-133.69	35.937	151.867	-138.363	-83.613	44.381
752	7.52	-102.308	0.595	157.039	-130.302	-242.494	190.335	-134.139	-233.776	221.136	-46.816	-153.158	-8.669	-46.816	31.938	-8.669	0	0	0	-127.546	28.771	33.086	-133.685	35.904	151.982	-138.344	-83.651	44.501
753	7.53	-102.41	0.569	156.747	-130.505	-242.493	190.146	-134.396	-233.756	220.935	-46.816	-153.158	-8.669	-46.816	31.938	-8.669	0	0	0	-127.511	28.638	33.284	-133.689	35.771	152.178	-138.341	-83.781	44.694
754	7.54	-102.534	0.683	156.415	-130.684	-242.359	189.916	-134.619	-233.604	220.693	-46.816	-153.158	-8.669	-46.816	31.938	-8.669	0	0	0	-127.509	28.533	33.536	-133.719	35.654	152.429	-138.362	-83.886	44.931
755	7.55	-102.629	0.865	156.149	-130.795	-242.167	189.714	-134.765	-233.4	220.484	-46.816	-153.158	-8.669	-46.816	31.938	-8.669	0	0	0	-127.566	28.564	33.716	-133.803	35.67	152.608	-138.423	-83.857	45.094
756	7.56	-102.659	0.904	156.095	-130.859	-242.12	189.689	-134.858	-233.345	220.454	-46.816	-153.158	-8.669	-46.816	31.938	-8.669	0	0	0	-127.606	28.659	33.781	-133.866	35.756	152.673	-138.455	-83.763	45.149
757	7.57	-102.673	0.774	156.239	-130.941	-242.238	189.859	-134.966	-233.456	220.618	-46.816	-153.158	-8.669	-46.816	31.938	-8.669	0	0	0	-127.544	28.69	33.785	-133.814	35.783	152.676	-138.387	-83.733	45.149
758	7.58	-102.759	0.665	156.454	-131.092	-242.336	190.103	-135.137	-233.547	220.858	-46.816	-153.158	-8.669	-46.816	31.938	-8.669	0	0	0	-127.445	28.656	33.781	-133.707	35.748	152.673	-138.286	-83.767	45.144
